<svg width="344" height="344" viewBox="0 0 344 344" fill="none" xmlns="http://www.w3.org/2000/svg"><g>
<animateTransform attributeName="transform" type="translate" dur="0.4s" repeatCount="indefinite" keyTimes="0;0.5;1" values="0 0;0 28;0 0" />
<path d="M231.82 97.8198H111.22V71.0198L180.23 10.3848H231.82L201.67 25.1248V53.2648L231.82 71.0198V97.8198Z" fill="#AD00FF"/>
<rect x="71.02" y="97.8198" width="201" height="10.72" fill="#AD00FF"/>
<rect x="111.22" y="87.0996" width="120.6" height="10.72" fill="#FFB039"/>
<path d="M186.93 18.7598L188.735 24.3153H194.577L189.851 27.7488L191.656 33.3043L186.93 29.8708L182.204 33.3043L184.009 27.7488L179.284 24.3153H185.125L186.93 18.7598Z" fill="#FFB039"/>
<path d="M158.12 38.1899L159.925 43.7454H165.767L161.041 47.1789L162.846 52.7344L158.12 49.3009L153.395 52.7344L155.2 47.1789L150.474 43.7454H156.315L158.12 38.1899Z" fill="#FFB039"/>
<path d="M179.56 54.9399L181.365 60.4954H187.207L182.481 63.9289L184.286 69.4844L179.56 66.0509L174.834 69.4844L176.639 63.9289L171.914 60.4954H177.755L179.56 54.9399Z" fill="#FFB039"/>
<path d="M138.69 66.3296L140.495 71.8851H146.337L141.611 75.3186L143.416 80.8741L138.69 77.4406L133.964 80.8741L135.769 75.3186L131.044 71.8851H136.885L138.69 66.3296Z" fill="#FFB039"/>
<path d="M212.39 66.3301L214.195 71.8856H220.037L215.311 75.3191L217.116 80.8746L212.39 77.4411L207.665 80.8746L209.47 75.3191L204.744 71.8856H210.585L212.39 66.3301Z" fill="#FFB039"/>
</g></svg>
