<svg width="512" height="512" viewBox="0 0 512 512" fill="none" xmlns="http://www.w3.org/2000/svg">
    <path d="M134 178H166V242H146L134 178Z" fill="#E24713"/>
    <path d="M378 178H346V242H366L378 178Z" fill="#E24713"/>
    <rect x="207" y="346" width="98" height="9" fill="#1D1D1D"/>
    <rect x="207" y="355" width="98" height="9" fill="#2D2D2D"/>
    <rect x="207" y="364" width="98" height="9" fill="#1D1D1D"/>
    <rect x="207" y="373" width="98" height="9" fill="#2D2D2D"/>
    <rect x="207" y="382" width="98" height="9" fill="#1D1D1D"/>
    <rect x="207" y="391" width="98" height="9" fill="#2D2D2D"/>
    <path d="M64 400H448L480 512H32L64 400Z" fill="#F15824"/>
    <path d="M64 400H120V488H76V512H32L64 400Z" fill="#2D2D2D"/>
    <rect x="166" y="106" width="180" height="240" fill="#F15824"/>
    <path d="M166 172H246V236L166 278V172Z" fill="#2D2D2D"/>
    <rect id="rect1" x="182" y="184" width="8" height="8" rx="4" fill="#D22D27">
    <animate attributeName="fill" values="#D22D27;#FF0900;#FF0900;#D22D27;#D22D27;#FF0900;#FF0900;#D22D27;#D22D27;#FF0900;#FF0900;#D22D27;#D22D27" keyTimes="0;0.01;0.05;0.09;0.2;0.21;0.25;0.29;0.8;0.81;0.85;0.89;1" dur="3s" repeatCount="indefinite" />
    </rect>
    <rect id="rect2" x="182" y="200" width="8" height="8" rx="4" fill="#D22D27">
    <animate attributeName="fill" values="#D22D27;#C2FD52;#C2FD52;#D22D27;#D22D27;#C2FD52;#C2FD52;#D22D27;#D22D27;#C2FD52;#C2FD52;#D22D27;#D22D27" keyTimes="0;0.01;0.05;0.09;0.4;0.41;0.45;0.49;0.6;0.61;0.65;0.69;1" dur="3.2s" repeatCount="indefinite" />
    </rect>
    <circle id="circle1" cx="92" cy="436" r="12" fill="#D22D27">
       <animate attributeName="fill" values="#D22D27;#FF0900;#FF0900;#D22D27;#D22D27;#FF0900;#FF0900;#D22D27;#D22D27;#FF0900;#FF0900;#D22D27;#D22D27" keyTimes="0;0.01;0.05;0.09;0.4;0.41;0.45;0.49;0.6;0.61;0.65;0.69;1" dur="2.8s" repeatCount="indefinite" />
    </circle>
    <rect x="302" y="106" width="44" height="48" fill="#2D2D2D"/>
    <rect x="166" y="242" width="12" height="104" fill="#2D2D2D"/>
    <circle id="circle2" cx="148" cy="436" r="12" fill="#7B0000">
       <animate attributeName="fill" values="#D22D27;#C2FD52;#C2FD52;#D22D27;#D22D27;#C2FD52;#C2FD52;#D22D27;#D22D27;#C2FD52;#C2FD52;#D22D27;#D22D27" keyTimes="0;0.01;0.05;0.09;0.2;0.21;0.25;0.29;0.8;0.81;0.85;0.89;1" dur="2.9s" repeatCount="indefinite" />
    </circle>
    <path d="M256 218L266 258H246" stroke="#121212" stroke-width="6"/>
</svg>
