<svg width="512" height="512" viewBox="0 0 512 512" fill="none" xmlns="http://www.w3.org/2000/svg">
<mask id="mask0_34_133" style="mask-type:alpha" maskUnits="userSpaceOnUse" x="32" y="106" width="448" height="406">
<path fill-rule="evenodd" clip-rule="evenodd" d="M207 346H166V242H146L134 178H166L166 106L346 106V178H378L366 242H346V346L305 346V400H448L480 512H32L64 400H207V346Z" fill="#F15824"/>
</mask>
<g mask="url(#mask0_34_133)">
<circle cx="256" cy="-40" r="950" fill="#F15824">
<animate attributeName="cy" values="-40;-400;-40" keyTimes="0;0.5;1" dur="20s" repeatCount="indefinite"/>
</circle>
<circle cx="256" cy="-40" r="900" fill="#C2FD52">
<animate attributeName="cy" values="-40;-400;-40" keyTimes="0;0.5;1" dur="20s" repeatCount="indefinite"/>
</circle>
<circle cx="256" cy="-40" r="850" fill="#AD00FF">
<animate attributeName="cy" values="-40;-400;-40" keyTimes="0;0.5;1" dur="20s" repeatCount="indefinite"/>
</circle>
<circle cx="256" cy="-40" r="800" fill="#00A8FF">
<animate attributeName="cy" values="-40;-400;-40" keyTimes="0;0.5;1" dur="20s" repeatCount="indefinite"/>
</circle>
<circle cx="256" cy="-40" r="750" fill="#C2FD52">
<animate attributeName="cy" values="-40;-400;-40" keyTimes="0;0.5;1" dur="20s" repeatCount="indefinite"/>
</circle>
<circle cx="256" cy="-40" r="700" fill="#D22D27">
<animate attributeName="cy" values="-40;-400;-40" keyTimes="0;0.5;1" dur="20s" repeatCount="indefinite"/>
</circle>
<circle cx="256" cy="-40" r="650" fill="#FFB74A">
<animate attributeName="cy" values="-40;-400;-40" keyTimes="0;0.5;1" dur="20s" repeatCount="indefinite"/>
</circle>
<circle cx="256" cy="-40" r="600" fill="#F15824">
<animate attributeName="cy" values="-40;-400;-40" keyTimes="0;0.5;1" dur="20s" repeatCount="indefinite"/>
</circle>
<circle cx="256" cy="-40" r="550" fill="#C2FD52">
<animate attributeName="cy" values="-40;-400;-40" keyTimes="0;0.5;1" dur="20s" repeatCount="indefinite"/>
</circle>
<circle cx="256" cy="-40" r="500" fill="#FF00B1">
<animate attributeName="cy" values="-40;-400;-40" keyTimes="0;0.5;1" dur="20s" repeatCount="indefinite"/>
</circle>
<circle cx="256" cy="-40" r="450" fill="#AD00FF">
<animate attributeName="cy" values="-40;-400;-40" keyTimes="0;0.5;1" dur="20s" repeatCount="indefinite"/>
</circle>
<circle cx="256" cy="-40" r="400" fill="#00A8FF">
<animate attributeName="cy" values="-40;-400;-40" keyTimes="0;0.5;1" dur="20s" repeatCount="indefinite"/>
</circle>
<circle cx="256" cy="-40" r="350" fill="#C2FD52">
<animate attributeName="cy" values="-40;-400;-40" keyTimes="0;0.5;1" dur="20s" repeatCount="indefinite"/>
</circle>
<circle cx="256" cy="-40" r="300" fill="#D22D27">
<animate attributeName="cy" values="-40;-400;-40" keyTimes="0;0.5;1" dur="20s" repeatCount="indefinite"/>
</circle>
<circle cx="256" cy="-40" r="250" fill="#FFB74A">
<animate attributeName="cy" values="-40;-400;-40" keyTimes="0;0.5;1" dur="20s" repeatCount="indefinite"/>
</circle>
<circle cx="256" cy="-40" r="200" fill="#F15824">
<animate attributeName="cy" values="-40;-400;-40" keyTimes="0;0.5;1" dur="20s" repeatCount="indefinite"/>
</circle>
</g>
<path d="M256 218L266 258H246" stroke="#121212" stroke-width="6"/>
</svg>
