<svg width="512" height="512" viewBox="0 0 512 512" fill="none" xmlns="http://www.w3.org/2000/svg">
<path d="M230.711 302H280" stroke="#121212" stroke-width="6"/>
<path d="M360.711 348.964L346.267 368.131L284.112 321.294L258.419 301.978L298.556 302.127L360.711 348.964Z" fill="white"/>
<path d="M360.711 348.964L363.107 350.769L364.912 348.373L362.516 346.568L360.711 348.964ZM346.267 368.131L344.462 370.527L346.858 372.332L348.663 369.937L346.267 368.131ZM284.112 321.294L285.918 318.898L285.915 318.896L284.112 321.294ZM298.556 302.127L300.361 299.731L299.565 299.13L298.567 299.127L298.556 302.127ZM258.419 301.978L258.43 298.978C257.137 298.973 255.987 299.797 255.575 301.022C255.163 302.248 255.583 303.599 256.616 304.376L258.419 301.978ZM358.315 347.158L343.871 366.326L348.663 369.937L363.107 350.769L358.315 347.158ZM348.073 365.735L285.918 318.898L282.307 323.69L344.462 370.527L348.073 365.735ZM296.75 304.523L358.905 351.36L362.516 346.568L300.361 299.731L296.75 304.523ZM285.915 318.896L260.222 299.58L256.616 304.376L282.31 323.692L285.915 318.896ZM258.408 304.978L298.545 305.127L298.567 299.127L258.43 298.978L258.408 304.978Z" fill="#121212"/>
<path d="M258.419 301.978L284.113 321.294L315.19 344.713L329.634 325.545L298.556 302.127L258.419 301.978Z" fill="#FFB74A"/>
<path d="M284.113 321.294L285.918 318.898L285.915 318.896L284.113 321.294ZM258.419 301.978L258.43 298.978C257.138 298.973 255.987 299.797 255.575 301.022C255.164 302.248 255.583 303.599 256.616 304.376L258.419 301.978ZM298.556 302.127L300.362 299.731L299.565 299.131L298.567 299.127L298.556 302.127ZM329.634 325.545L332.03 327.351L333.835 324.955L331.439 323.15L329.634 325.545ZM315.19 344.713L313.385 347.109L315.781 348.914L317.586 346.518L315.19 344.713ZM285.915 318.896L260.222 299.58L256.616 304.376L282.31 323.692L285.915 318.896ZM258.408 304.978L298.545 305.127L298.567 299.127L258.43 298.978L258.408 304.978ZM296.751 304.523L327.828 327.941L331.439 323.15L300.362 299.731L296.751 304.523ZM316.996 342.317L285.918 318.898L282.307 323.69L313.385 347.109L316.996 342.317ZM317.586 346.518L332.03 327.351L327.238 323.74L312.794 342.907L317.586 346.518Z" fill="#121212"/>
</svg>
