<svg width="344" height="344" viewBox="0 0 344 344" fill="none" xmlns="http://www.w3.org/2000/svg">
<g>
<animateTransform attributeName="transform" type="translate" dur="0.4s" repeatCount="indefinite" keyTimes="0;0.5;1" values="0 0;0 28;0 0" />
<path d="M121 117L164 117V130.28L156 155H121V117Z" fill="#121212"/>
<path d="M121 117L164 117V130.28L156 155H121V117ZM121 117H111" stroke="#FFB74A" stroke-width="4.02"/>
<path d="M165 117H178" stroke="#FFB74A" stroke-width="4"/>
<path d="M165 129.214H177.667" stroke="#FFB74A" stroke-width="4.02"/>
<path d="M178 117H220V155H186L178 130.252V117Z" fill="#121212"/>
<path d="M220 117H178V130.252L186 155H220V117ZM220 117H231" stroke="#FFB74A" stroke-width="4.02"/>
<mask id="mask0_59_950" style="mask-type:alpha" maskUnits="userSpaceOnUse" x="180" y="119" width="38" height="34">
<path d="M180 119H218V131V153H187.5L180 130V119Z" fill="#121212"/>
</mask>
<g mask="url(#mask0_59_950)">
<path d="M183.727 119H191L182.273 153H175L183.727 119Z" fill="white">
<animateTransform attributeName="transform" type="translate" dur="4s" repeatCount="indefinite" keyTimes="0;0.8;1" values="-32 0;-32 0;48 0" />
</path>
</g>
<mask id="mask1_59_950" style="mask-type:alpha" maskUnits="userSpaceOnUse" x="123" y="119" width="39" height="34">
<path d="M123 119H162V130L154.5 153H123V119Z" fill="#121212"/>
</mask>
<g mask="url(#mask1_59_950)">
<path d="M126.727 119H134L125.273 153H118L126.727 119Z" fill="white">
<animateTransform attributeName="transform" type="translate" dur="4s" repeatCount="indefinite" keyTimes="0;0.8;1" values="-32 0;-32 0;48 0" />
</path>
</g>
</g>
</svg>
