<svg width="344" height="344" viewBox="0 0 344 344" fill="none" xmlns="http://www.w3.org/2000/svg">
<g>
<animateTransform attributeName="transform" type="translate" dur="0.4s" repeatCount="indefinite" keyTimes="0;0.5;1" values="0 0;0 28;0 0" />
<path d="M112 119.26H162.667L168 124.62L157.333 154.77L112 141.37V119.26Z" fill="#121212"/>
<path d="M232 119.26H181.333L176 124.62L186.667 154.77L232 141.37V119.26Z" fill="#121212"/>
<rect x="162.666" y="119.26" width="18.6667" height="8.04" fill="#121212"/>
<mask id="mask0_134_606" style="mask-type:alpha" maskUnits="userSpaceOnUse" x="115" y="125" width="50" height="26">
<path d="M115 125H164.5L160.5 135.5L155.5 150.5L115 139V125Z" fill="#121212"/>
</mask>
<g mask="url(#mask0_134_606)">
<path d="M122.727 123H130L121.273 158H114L122.727 123Z" fill="#D9D9D9">
<animateTransform attributeName="transform" type="translate" dur="4s" repeatCount="indefinite" keyTimes="0;0.8;1" values="-32 0;-32 0;48 0" />
</path>
</g>
<mask id="mask1_134_606" style="mask-type:alpha" maskUnits="userSpaceOnUse" x="179" y="125" width="51" height="26">
<path d="M229.002 125H179.502L183.502 135.5L188.502 150.5L229.002 139V125Z" fill="#121212"/>
</mask>
<g mask="url(#mask1_134_606)">
<path d="M224.275 124H217.002L225.729 159H233.002L224.275 124Z" fill="#D9D9D9">
<animateTransform attributeName="transform" type="translate" dur="4s" repeatCount="indefinite" keyTimes="0;0.8;1" values="-48 0;-48 0;48 0" />
</path>
</g>
</g>
</svg>
