<svg width="512" height="512" viewBox="0 0 512 512" fill="none" xmlns="http://www.w3.org/2000/svg">
<g clip-path="url(#clip0_453_11771)">
<path d="M64 400H148C148 400 155 480 256 480C357 480 364 400 364 400H448L480 512H32L64 400Z" fill="#121212"/>
<path d="M346.001 381.044L355.501 397.499L457.615 359.204L515.001 363.6L448.115 342.75L346.001 381.044Z" fill="#121212"/>
<path d="M346.004 381.001L391.811 396.026L471.581 381.961L524.002 405.719L468.281 363.249L346.004 381.001Z" fill="#454545"/>
<path d="M346.002 381V400H459.002L506.502 432.5L459.002 381H346.002Z" fill="#202020"/>
<rect x="134" y="400" width="20" height="8" fill="#454545"/>
<rect x="252" y="490" width="20" height="8" transform="rotate(-90 252 490)" fill="#454545"/>
<rect x="151.105" y="442.715" width="20" height="8" transform="rotate(-30 151.105 442.715)" fill="#454545"/>
<rect x="190" y="476.32" width="20" height="8" transform="rotate(-60 190 476.32)" fill="#454545"/>
<rect width="20" height="8" transform="matrix(-0.5 -0.866025 -0.866025 0.5 321.928 476.32)" fill="#454545"/>
<rect width="20" height="8" transform="matrix(-0.866025 -0.5 -0.5 0.866025 360.32 442.715)" fill="#454545"/>
<rect x="356" y="400" width="20" height="8" fill="#454545"/>
<path d="M166.001 381.541L156.501 397.995L54.387 359.7L-2.99914 364.096L63.887 343.246L166.001 381.541Z" fill="#121212"/>
<path d="M165.998 381.497L120.191 396.522L40.4214 382.457L-12.0005 406.215L43.7207 363.745L165.998 381.497Z" fill="#454545"/>
<path d="M166 381.496V400.496H53L5.5 432.996L53 381.496H166Z" fill="#202020"/>
</g>
<defs>
<clipPath id="clip0_453_11771">
<rect width="512" height="512" fill="white"/>
</clipPath>
</defs>
</svg>
