<svg width="512" height="512" viewBox="0 0 512 512" fill="none" xmlns="http://www.w3.org/2000/svg">
<g clip-path="url(#clip0_611_16907)">
<path d="M63.5 400H190L223 439V512H31.5L63.5 400Z" fill="#FF00B1"/>
<path d="M447.999 400H320.999L287.999 439V512H480L447.999 400Z" fill="#FF00B1"/>
<path d="M223 439L182 466.5L146 400L173 380L223 439Z" fill="#FF79D6"/>
<path d="M288 439L329 466.5L365 400L338 380L288 439Z" fill="#FF79D6"/>
<path d="M100.34 448.288L113.126 475.708M100.34 448.288C100.34 448.288 91.2768 452.514 87.3328 463.662M100.34 448.288C100.34 448.288 108.723 445.984 119.96 448.447M100.34 448.288C100.34 448.288 101.83 437.963 110.985 429.201M100.34 448.288C100.34 448.288 88.7603 443.737 78.3579 444.415M100.34 448.288C100.34 448.288 94.443 435.811 88.1415 431.086" stroke="#FFD600" stroke-width="6"/>
<path d="M357.34 472.288L370.126 499.708M357.34 472.288C357.34 472.288 348.277 476.514 344.333 487.662M357.34 472.288C357.34 472.288 365.723 469.984 376.96 472.447M357.34 472.288C357.34 472.288 358.83 461.963 367.985 453.201M357.34 472.288C357.34 472.288 345.76 467.737 335.358 468.415M357.34 472.288C357.34 472.288 351.443 459.811 345.141 455.086" stroke="#FFD600" stroke-width="6"/>
<path d="M165.332 494.482L147.978 519.265M165.332 494.482C165.332 494.482 157.14 488.746 145.514 490.904M165.332 494.482C165.332 494.482 171.519 500.59 175.003 511.553M165.332 494.482C165.332 494.482 175.018 490.611 187.184 494.157M165.332 494.482C165.332 494.482 163.483 482.178 157.695 473.509M165.332 494.482C165.332 494.482 173.188 483.137 174.13 475.317" stroke="#FFD600" stroke-width="6"/>
<path d="M421.149 438.34L393.729 451.126M421.149 438.34C421.149 438.34 416.923 429.277 405.775 425.333M421.149 438.34C421.149 438.34 423.453 446.723 420.989 457.96M421.149 438.34C421.149 438.34 431.473 439.83 440.236 448.985M421.149 438.34C421.149 438.34 425.7 426.76 425.022 416.358M421.149 438.34C421.149 438.34 433.626 432.443 438.351 426.141" stroke="#FFD600" stroke-width="6"/>
</g>
<defs>
<clipPath id="clip0_611_16907">
<rect width="512" height="512" fill="white"/>
</clipPath>
</defs>
</svg>
