<svg width="512" height="512" viewBox="0 0 512 512" fill="none" xmlns="http://www.w3.org/2000/svg">
<rect x="207" y="372" width="98" height="28" fill="white"/>
<path d="M64 400H448L480 512H32L64 400Z" fill="white"/>
<rect x="96" y="463" width="80" height="16" fill="#121212"/>
<path d="M336 448L343.629 472H347.857L340.292 448H336ZM372.078 448L364.068 472H368.36L376.307 448H372.079H372.078ZM349.653 460.652H355.853L349.113 469.139V472H362.591V467.899H356.018L362.814 459.412V456.551H349.653V460.652Z" fill="#FFD600"/>
<path d="M316 484H356V500H332C323.163 500 316 492.837 316 484Z" fill="#E5C100"/>
<path d="M396 484H356V500H380C388.837 500 396 492.837 396 484Z" fill="#E5C100"/>
<circle cx="356" cy="492" r="12" fill="#FFD600"/>
<path d="M256 372L256 512" stroke="#D8D8D8" stroke-width="6"/>
<circle cx="274" cy="427" r="6" fill="#FFD600"/>
<circle cx="274" cy="459" r="6" fill="#FFD600"/>
<circle cx="274" cy="491" r="6" fill="#FFD600"/>
<rect x="96" y="400" width="80" height="32" fill="#121212"/>
<rect x="104" y="400" width="16" height="32" fill="#FEED59"/>
<rect x="128" y="400" width="16" height="32" fill="#FEED59"/>
<rect x="336" y="400" width="80" height="32" fill="#121212"/>
<path d="M352 408L354.351 412.764L359.608 413.528L355.804 417.236L356.702 422.472L352 420L347.298 422.472L348.196 417.236L344.392 413.528L349.649 412.764L352 408Z" fill="#FEED59"/>
<path d="M160 408L162.351 412.764L167.608 413.528L163.804 417.236L164.702 422.472L160 420L155.298 422.472L156.196 417.236L152.392 413.528L157.649 412.764L160 408Z" fill="#FEED59"/>
<rect x="368" y="400" width="16" height="32" fill="#FEED59"/>
<rect x="392" y="400" width="16" height="32" fill="#FEED59"/>
</svg>
