<svg width="512" height="512" viewBox="0 0 512 512" fill="none" xmlns="http://www.w3.org/2000/svg">
<path d="M64 400H207L257 439L305 400H448L480 512H32L64 400Z" fill="#121212"/>
<circle cx="6" cy="6" r="6" transform="matrix(1 0 0 -1 79 429)" fill="white"/>
<circle cx="6" cy="6" r="6" transform="matrix(1 0 0 -1 347 429)" fill="white"/>
<circle cx="6" cy="6" r="6" transform="matrix(1 0 0 -1 99 465)" fill="white"/>
<circle cx="6" cy="6" r="6" transform="matrix(1 0 0 -1 115 501)" fill="white"/>
<circle cx="6" cy="6" r="6" transform="matrix(1 0 0 -1 367 465)" fill="white"/>
<circle cx="6" cy="6" r="6" transform="matrix(1 0 0 -1 347 501)" fill="white"/>
<circle cx="6" cy="6" r="6" transform="matrix(1 0 0 -1 63 465)" fill="white"/>
<circle cx="6" cy="6" r="6" transform="matrix(1 0 0 -1 79 501)" fill="white"/>
<circle cx="6" cy="6" r="6" transform="matrix(1 0 0 -1 43 501)" fill="white"/>
<circle cx="6" cy="6" r="6" transform="matrix(1 0 0 -1 331 465)" fill="white"/>
<circle cx="6" cy="6" r="6" transform="matrix(1 0 0 -1 311 501)" fill="white"/>
<circle cx="6" cy="6" r="6" transform="matrix(1 0 0 -1 275 501)" fill="white"/>
<circle cx="6" cy="6" r="6" transform="matrix(1 0 0 -1 115 429)" fill="white"/>
<circle cx="6" cy="6" r="6" transform="matrix(1 0 0 -1 383 429)" fill="white"/>
<circle cx="6" cy="6" r="6" transform="matrix(1 0 0 -1 135 465)" fill="white"/>
<circle cx="6" cy="6" r="6" transform="matrix(1 0 0 -1 151 501)" fill="white"/>
<circle cx="6" cy="6" r="6" transform="matrix(1 0 0 -1 403 465)" fill="white"/>
<circle cx="6" cy="6" r="6" transform="matrix(1 0 0 -1 383 501)" fill="white"/>
<circle cx="6" cy="6" r="6" transform="matrix(1 0 0 -1 151 429)" fill="white"/>
<circle cx="6" cy="6" r="6" transform="matrix(1 0 0 -1 419 429)" fill="white"/>
<circle cx="6" cy="6" r="6" transform="matrix(1 0 0 -1 171 465)" fill="white"/>
<circle cx="6" cy="6" r="6" transform="matrix(1 0 0 -1 187 501)" fill="white"/>
<circle cx="6" cy="6" r="6" transform="matrix(1 0 0 -1 223 501)" fill="white"/>
<circle cx="6" cy="6" r="6" transform="matrix(1 0 0 -1 251 468)" fill="white"/>
<circle cx="6" cy="6" r="6" transform="matrix(1 0 0 -1 439 465)" fill="white"/>
<circle cx="6" cy="6" r="6" transform="matrix(1 0 0 -1 419 501)" fill="white"/>
<circle cx="6" cy="6" r="6" transform="matrix(1 0 0 -1 455 501)" fill="white"/>
<path d="M257 439L215.5 466.5L179.5 400L207 380L257 439Z" fill="white"/>
<path d="M257 439L298.5 466.5L334.5 400L305 380L257 439Z" fill="white"/>
</svg>
