<svg width="512" height="512" viewBox="0 0 512 512" fill="none" xmlns="http://www.w3.org/2000/svg">
<g clip-path="url(#clip0_434_10622)">
<path d="M207 512H305V439H257H207V512Z" fill="#454545"/>
<path d="M207 439V400L257 439H207Z" fill="#606060"/>
<path d="M305 439V400L257 439H305Z" fill="#606060"/>
<path d="M241 439H273L265 463H249L241 439Z" fill="#1D1D1D"/>
<path d="M241 512H273L265 463H249L241 512Z" fill="#1D1D1D"/>
<path d="M64 400H176V512H32L64 400Z" fill="#121212"/>
<path d="M448 400H336V512H480L448 400Z" fill="#121212"/>
<path d="M137 400H207V512H166L137 456.5L166 435L137 400Z" fill="#202020"/>
<path d="M375 400H305V512H346L375 456.5L346 435L375 400Z" fill="#202020"/>
<path d="M207 512H305V439L257 479L207 439V512Z" fill="#121212"/>
<circle cx="272" cy="488" r="6" fill="#1D1D1D"/>
<circle cx="272" cy="512" r="6" fill="#1D1D1D"/>
<path d="M257 476L257 512" stroke="#1D1D1D" stroke-width="6"/>
</g>
<defs>
<clipPath id="clip0_434_10622">
<rect width="512" height="512" fill="white"/>
</clipPath>
</defs>
</svg>
