<svg width="344" height="344" viewBox="0 0 344 344" fill="none" xmlns="http://www.w3.org/2000/svg"><g>
<animateTransform attributeName="transform" type="translate" dur="0.4s" repeatCount="indefinite" keyTimes="0;0.5;1" values="0 0;0 28;0 0" />
<path d="M154.576 202.339H187.6" stroke="#121212" stroke-width="4.02"/>
<path d="M182 205L221 247" stroke="#1D1D1D" stroke-width="4.02">
<animateTransform attributeName="transform" type="rotate" dur="4s" repeatCount="indefinite" keyTimes="0;0.1;0.5;0.6;1" values="0 180 205;90 180 205;90 180 205; 0 180 205; 0 180 205;" />
</path>
<path d="M181.57 217.75C188.971 217.75 194.97 211.75 194.97 204.35H168.17C168.17 211.75 174.169 217.75 181.57 217.75Z" fill="#FF00B1"/>
<path d="M181.569 213.73C186.75 213.73 190.949 209.53 190.949 204.35H172.189C172.189 209.53 176.389 213.73 181.569 213.73Z" fill="#AD00FF"/>
<path d="M181.569 209.71C184.529 209.71 186.929 207.31 186.929 204.35H176.209C176.209 207.31 178.609 209.71 181.569 209.71Z" fill="#FFB039"/>
<path d="M168.17 202.34H166.16V204.35C166.16 212.86 173.059 219.76 181.57 219.76C190.081 219.76 196.98 212.86 196.98 204.35V202.34H194.97H168.17Z" stroke="#1D1D1D" stroke-width="4.02"/>
</g></svg>
