<svg width="512" height="512" viewBox="0 0 512 512" fill="none" xmlns="http://www.w3.org/2000/svg">
<path d="M182 175H246V195L234 231H182V175Z" fill="#121212"/>
<path d="M182 175H246V195L234 231H182V175ZM182 175H166" stroke="#FFB74A" stroke-width="6"/>
<path d="M247 175H266" stroke="#FFB74A" stroke-width="6"/>
<path d="M247 193H266" stroke="#FFB74A" stroke-width="6"/>
<path d="M266 175H330V231H278L266 195.5V175Z" fill="#121212"/>
<path d="M330 175H266V195.5L278 231H330V175ZM330 175H346" stroke="#FFB74A" stroke-width="6"/>
<mask id="mask0_143_2" style="mask-type:alpha" maskUnits="userSpaceOnUse" x="185" y="178" width="58" height="50">
<path d="M185 178H243V195L232 228H223.188H185V178Z" fill="#121212"/>
</mask>
<g mask="url(#mask0_143_2)">
<path d="M195.545 178H206L193.455 228H183L195.545 178Z" fill="#D9D9D9">
<animateTransform attributeName="transform" type="translate" dur="4s" repeatCount="indefinite" keyTimes="0;0.8;1" values="-32 0;-32 0;48 0" />
</path>
</g>
<mask id="mask1_143_2" style="mask-type:alpha" maskUnits="userSpaceOnUse" x="269" y="178" width="58" height="50">
<path d="M327 178H269V195L280 228H288.812H327V178Z" fill="#121212"/>
</mask>
<g mask="url(#mask1_143_2)">
<path d="M287.545 178H298L285.455 228H275L287.545 178Z" fill="#D9D9D9">
<animateTransform attributeName="transform" type="translate" dur="4s" repeatCount="indefinite" keyTimes="0;0.8;1" values="-32 0;-32 0;48 0" />
</path>
</g>
</svg>
