<svg width="512" height="512" viewBox="0 0 512 512" fill="none" xmlns="http://www.w3.org/2000/svg">
<path d="M166 106H346C346 56.2944 305.706 16 256 16C206.294 16 166 56.2944 166 106Z" fill="#D22D27"/>
<path d="M68 162H444L460 106H52L68 162Z" fill="#FFB74A"/>
<path d="M132 162L111.375 122L92 162H132Z" fill="#D22D27"/>
<path d="M204 162L183.375 122L164 162H204Z" fill="#D22D27"/>
<path d="M276 162L255.375 122L236 162H276Z" fill="#D22D27"/>
<path d="M348 162L327.375 122L308 162H348Z" fill="#D22D27"/>
<path d="M420 162L399.375 122L380 162H420Z" fill="#D22D27"/>
</svg>
