<svg width="512" height="512" viewBox="0 0 512 512" fill="none" xmlns="http://www.w3.org/2000/svg">
<rect width="244" height="24" transform="matrix(1 0 0 -1 134 166)" fill="#FFB74A"/>
<rect width="32" height="26" transform="matrix(1 0 0 -1 134 192)" fill="#42B06C"/>
<rect width="37" height="64" transform="matrix(1 0 0 -1 134 142)" fill="#42B06C"/>
<rect width="34" height="64" transform="matrix(1 0 0 -1 171 142)" fill="#FFB74A"/>
<rect width="34" height="64" transform="matrix(1 0 0 -1 205 142)" fill="#42B06C"/>
<rect width="34" height="64" transform="matrix(1 0 0 -1 239 142)" fill="#FFB74A"/>
<rect width="34" height="64" transform="matrix(1 0 0 -1 273 142)" fill="#42B06C"/>
<rect width="34" height="64" transform="matrix(1 0 0 -1 307 142)" fill="#FFB74A"/>
<rect width="37" height="64" transform="matrix(1 0 0 -1 341 142)" fill="#42B06C"/>
<rect width="32" height="25" transform="matrix(1 0 0 -1 134 217)" fill="#FFB74A"/>
<rect width="32" height="26" transform="matrix(1 0 0 -1 134 243)" fill="#42B06C"/>
<rect width="32" height="26" transform="matrix(1 0 0 -1 134 269)" fill="#FFB74A"/>
<rect width="32" height="26" transform="matrix(1 0 0 -1 134 295)" fill="#42B06C"/>
<rect width="32" height="25" transform="matrix(1 0 0 -1 134 320)" fill="#FFB74A"/>
<rect width="32" height="26" transform="matrix(1 0 0 -1 134 346)" fill="#42B06C"/>
<rect width="32" height="26" transform="matrix(1 0 0 -1 346 192)" fill="#42B06C"/>
<rect width="32" height="25" transform="matrix(1 0 0 -1 346 217)" fill="#FFB74A"/>
<rect width="32" height="26" transform="matrix(1 0 0 -1 346 243)" fill="#42B06C"/>
<rect width="32" height="26" transform="matrix(1 0 0 -1 346 269)" fill="#FFB74A"/>
<rect width="32" height="26" transform="matrix(1 0 0 -1 346 295)" fill="#42B06C"/>
<rect width="32" height="25" transform="matrix(1 0 0 -1 346 320)" fill="#FFB74A"/>
<rect width="32" height="26" transform="matrix(1 0 0 -1 346 346)" fill="#42B06C"/>
</svg>
