<svg width="344" height="344" viewBox="0 0 344 344" fill="none" xmlns="http://www.w3.org/2000/svg"><g>
<animateTransform attributeName="transform" type="translate" dur="0.4s" repeatCount="indefinite" keyTimes="0;0.5;1" values="0 0;0 28;0 0" />
<path d="M154.577 202.34H187.6" stroke="#121212" stroke-width="4.02"/>
<path d="M247.178 250.204L221.35 226.783L199.596 214.099L187.877 202.38L178.832 202.38L204.377 233.417L215.666 246.065L236.842 262.522L247.178 250.204Z" fill="white"/>
<path d="M215.666 246.065L236.842 262.522L247.178 250.204L221.35 226.783M215.666 246.065L221.35 226.783M215.666 246.065L204.377 233.417M221.35 226.783L199.596 214.099M204.377 233.417L178.832 202.38L187.877 202.38L199.596 214.099M204.377 233.417L199.596 214.099" stroke="#121212" stroke-width="4.02"/>
<path d="M244.494 250.363L236.203 260.244L232 257L240.597 246.804L244.494 250.363Z" fill="#2d2d2d">
<animate attributeName="fill" dur="4s" repeatCount="indefinite" keyTimes="0;0.8;1" values="#2d2d2d;red;#2d2d2d" />
</path>
<path d="M256.61 259.3C275.705 263.99 296.14 256.285 300.83 228.145C305.52 200.005 263.31 179.57 284.08 148.75" stroke="white" stroke-width="4.02">
<animate attributeName="stroke" dur="4s" repeatCount="indefinite" keyTimes="0;0.8;1" values="white;transparent;white" />
</path>
<line x1="230.513" y1="255.662" x2="239.513" y2="245.662" stroke="#121212" stroke-width="4"/>
</g></svg>
