<svg width="344" height="344" viewBox="0 0 344 344" fill="none" xmlns="http://www.w3.org/2000/svg"><g>
<animateTransform attributeName="transform" type="translate" dur="0.4s" repeatCount="indefinite" keyTimes="0;0.5;1" values="0 0;0 28;0 0" />
<path d="M144.8 190.76H198.4L195.72 202.15L193.04 212.87H150.16L147.48 202.15L144.8 190.76Z" fill="white"/>
<path d="M147.48 202.15L150.16 212.87H193.04L195.72 202.15M147.48 202.15L144.8 190.76H198.4L195.72 202.15M147.48 202.15H195.72" stroke="#121212" stroke-width="4.02"/>
<path d="M171.767 269.484C146.81 269.484 133.41 253.404 133.41 253.404L164.793 202.149H178.741L210.125 253.404C210.125 253.404 196.725 269.484 171.767 269.484Z" fill="#FFB74A" stroke="#121212" stroke-width="4.02"/>
<path d="M171.767 269.484C146.81 269.484 133.41 253.404 133.41 253.404L138.538 245.029C138.538 245.029 150.495 257.759 171.767 257.759C191.03 257.759 204.997 245.029 204.997 245.029L210.125 253.404C210.125 253.404 196.725 269.484 171.767 269.484Z" fill="#FF9900" stroke="#121212" stroke-width="4.02"/>
<circle cx="161.55" cy="241.01" r="8.04" fill="#D22D27"/>
<circle cx="172.27" cy="215.55" r="6.7" fill="#D22D27"/>
<circle cx="182.99" cy="235.649" r="6.7" fill="#D22D27"/>
</g></svg>
