<svg width="344" height="344" viewBox="0 0 344 344" fill="none" xmlns="http://www.w3.org/2000/svg"><g>
<animateTransform attributeName="transform" type="translate" dur="0.4s" repeatCount="indefinite" keyTimes="0;0.5;1" values="0 0;0 28;0 0" />
<path d="M145.16 190.76H198.76L196.08 202.15L193.4 212.87H150.52L147.84 202.15L145.16 190.76Z" fill="white"/>
<path d="M147.84 202.15L150.52 212.87H193.4L196.08 202.15M147.84 202.15L145.16 190.76H198.76L196.08 202.15M147.84 202.15H196.08" stroke="#121212" stroke-width="4.02"/>
<g>
<animateTransform attributeName="transform" type="translate" dur="4s" repeatCount="indefinite" keyTimes="0;0.5;1" values="-4 0;8 0;-4 0" />
<path d="M208.81 202.149L208.81 185.064M208.81 202.149L208.81 218.229M208.81 202.149H129.415M121.04 202.149H129.415M129.415 202.149L135.11 191.429M129.415 202.149L135.11 212.199" stroke="#42B16C" stroke-width="4.02"/>
<rect x="242.98" y="188.749" width="26.8" height="32.16" transform="rotate(90 242.98 188.749)" fill="#D22D27"/>
<path d="M242.98 207.509V215.549H210.82V196.789L242.98 207.509Z" fill="#7B0000"/>
</g>
</g></svg>
