<svg width="512" height="512" viewBox="0 0 512 512" fill="none" xmlns="http://www.w3.org/2000/svg">
<path d="M64 400H207L257 439L305 400H448L480 512H32L64 400Z" fill="#00B2FE"/>
<mask id="mask0_434_10814" style="mask-type:alpha" maskUnits="userSpaceOnUse" x="32" y="400" width="448" height="112">
<path d="M64 400H207L257 439L305 400H448L480 512H32L64 400Z" fill="#00B2FE"/>
</mask>
<g mask="url(#mask0_434_10814)">
<path d="M37 348V548" stroke="#A7DAFF" stroke-width="6"/>
<path d="M0 416L504 416" stroke="#A7DAFF" stroke-width="6"/>
<path d="M0 456L504 456" stroke="#A7DAFF" stroke-width="6"/>
<path d="M0 496L504 496" stroke="#A7DAFF" stroke-width="6"/>
<path d="M77 348V548" stroke="#A7DAFF" stroke-width="6"/>
<path d="M117 348V548" stroke="#A7DAFF" stroke-width="6"/>
<path d="M157 348V548" stroke="#A7DAFF" stroke-width="6"/>
<path d="M197 348V548" stroke="#A7DAFF" stroke-width="6"/>
<path d="M237 348V548" stroke="#A7DAFF" stroke-width="6"/>
<path d="M277 348V548" stroke="#A7DAFF" stroke-width="6"/>
<path d="M317 348V548" stroke="#A7DAFF" stroke-width="6"/>
<path d="M357 348V548" stroke="#A7DAFF" stroke-width="6"/>
<path d="M397 348V548" stroke="#A7DAFF" stroke-width="6"/>
<path d="M437 348V548" stroke="#A7DAFF" stroke-width="6"/>
<path d="M477 348V548" stroke="#A7DAFF" stroke-width="6"/>
</g>
<path d="M257 439L215.5 466.5L179.5 400L207 380L257 439Z" fill="#A7DAFF"/>
<path d="M257 439L298.5 466.5L334.5 400L305 380L257 439Z" fill="#A7DAFF"/>
</svg>
