<svg width="512" height="512" viewBox="0 0 512 512" fill="none" xmlns="http://www.w3.org/2000/svg">
<rect width="180" height="88" transform="matrix(1 0 0 -1 166 138)" fill="#D22D27"/>
<rect width="212" height="24" transform="matrix(1 0 0 -1 150 162)" fill="#FFB74A"/>
<rect x="230" y="24" width="52" height="114" fill="#FFB74A"/>
<path d="M238 50.439L256.486 32L274 50.439L256.486 68L238 50.439Z" fill="#00A8FF"/>
<path d="M256.486 32L274 50.439H256.486V32Z" fill="#0097D8"/>
<path d="M238 50.439L256.486 32V50.439H238Z" fill="#79CBDC"/>
<circle cx="256" cy="150" r="6" fill="#D22D27"/>
<circle cx="256" cy="116" r="6" fill="#D22D27"/>
<circle cx="256" cy="88" r="6" fill="#D22D27"/>
<circle cx="220" cy="150" r="6" fill="#D22D27"/>
<circle cx="184" cy="150" r="6" fill="#D22D27"/>
<circle cx="328" cy="150" r="6" fill="#D22D27"/>
<circle cx="292" cy="150" r="6" fill="#D22D27"/>
<rect x="166" y="50" width="24" height="88" fill="#FFB74A"/>
<rect x="322" y="50" width="24" height="88" fill="#FFB74A"/>
<circle cx="334" cy="116" r="6" fill="#D22D27"/>
<circle cx="178" cy="116" r="6" fill="#D22D27"/>
<circle cx="334" cy="88" r="6" fill="#D22D27"/>
<circle cx="334" cy="60" r="6" fill="#D22D27"/>
<circle cx="178" cy="88" r="6" fill="#D22D27"/>
<circle cx="178" cy="60" r="6" fill="#D22D27"/>
</svg>
