<svg width="512" height="512" viewBox="0 0 512 512" fill="none" xmlns="http://www.w3.org/2000/svg">
<path d="M346 146H166V106L269 15.5H346L301 37.5V79.5L346 106V146Z" fill="#AD00FF"/>
<rect x="106" y="146" width="300" height="16" fill="#AD00FF"/>
<rect x="166" y="130" width="180" height="16" fill="#FFB039"/>
<path d="M279 28L281.694 36.2918H290.413L283.359 41.4164L286.053 49.7082L279 44.5836L271.947 49.7082L274.641 41.4164L267.587 36.2918H276.306L279 28Z" fill="#FFB039"/>
<path d="M236 57L238.694 65.2918H247.413L240.359 70.4164L243.053 78.7082L236 73.5836L228.947 78.7082L231.641 70.4164L224.587 65.2918H233.306L236 57Z" fill="#FFB039"/>
<path d="M268 82L270.694 90.2918H279.413L272.359 95.4164L275.053 103.708L268 98.5836L260.947 103.708L263.641 95.4164L256.587 90.2918H265.306L268 82Z" fill="#FFB039"/>
<path d="M207 99L209.694 107.292H218.413L211.359 112.416L214.053 120.708L207 115.584L199.947 120.708L202.641 112.416L195.587 107.292H204.306L207 99Z" fill="#FFB039"/>
<path d="M317 99L319.694 107.292H328.413L321.359 112.416L324.053 120.708L317 115.584L309.947 120.708L312.641 112.416L305.587 107.292H314.306L317 99Z" fill="#FFB039"/>
</svg>
