<svg width="512" height="512" viewBox="0 0 512 512" fill="none" xmlns="http://www.w3.org/2000/svg">
<g clip-path="url(#clip0_75_1405)">
<path d="M512 0H0V512H512V0Z" fill="#FF9900"/>
<path d="M428 340H84V500H428V340Z" fill="#0097D8"/>
<path d="M388 429.5L428 465V449L388 429.5Z" fill="#2C71A3"/>
<path d="M124 406L84 374V386.8L124 406Z" fill="#2C71A3"/>
<path d="M388 406L428 374V386.8L388 406Z" fill="#2C71A3"/>
<path d="M124 429.5L84 465V449L124 429.5Z" fill="#2C71A3"/>
<g>
<animateTransform attributeName="transform" type="translate" dur="0.4s" repeatCount="indefinite" keyTimes="0;0.5;1" values="0 0;0 28;0 0" />
<path d="M316 176H196V472H316V176Z" fill="#00B2FF"/>
<path d="M276 347.5L316 383V367L276 347.5Z" fill="#2C71A3"/>
<path d="M227.5 400.5L196 431V415L227.5 400.5Z" fill="#2C71A3"/>
<path d="M276 324L316 292V304.8L276 324Z" fill="#2C71A3"/>
<path d="M228 176H212L228 216V176Z" fill="#2C71A3"/>
<path d="M264 176H248L256 282L264 176Z" fill="#2C71A3"/>
<path d="M222 336L196 344V328L222 336Z" fill="#2C71A3"/>
<path d="M300 176H284V216L300 176Z" fill="#2C71A3"/>
<path d="M316 176H196V96H316V176Z" fill="#0097D8"/>
<path d="M262 96H250V132H262V96Z" fill="#00B2FF">
<animate attributeName="fill" values="#00B2FF; #00B2FF; #fff; #00B2FF;#fff; #00B2FF;#fff; #00B2FF;#fff; #00B2FF;#fff; #00B2FF;#fff; #00B2FF;#00B2FF" keyTimes="0; 0.74; 0.76; 0.78;0.8;0.82;0.84;0.86;0.88;0.9;0.92;0.94;0.96;0.98;1" dur="5s" repeatCount="indefinite" />
</path>
</g>
</g>
<defs>
<clipPath id="clip0_75_1405">
<rect width="512" height="512" fill="white"/>
</clipPath>
</defs>
</svg>
