<svg width="512" height="512" viewBox="0 0 512 512" fill="none" xmlns="http://www.w3.org/2000/svg">
<g clip-path="url(#clip0_75_1471)">
<path d="M512 0H0V512H512V0Z" fill="#FF9900"/>
<path d="M428 340H84V500H428V340Z" fill="#B7009A"/>
<g>
<animateTransform attributeName="transform" type="translate" dur="0.4s" repeatCount="indefinite" keyTimes="0;0.5;1" values="0 0;0 28;0 0" />
<path d="M316 176H196V472H316V176Z" fill="#D800B5"/>
<path d="M316 176H196V96H316V176Z" fill="#B7009A"/>
<path d="M262 96H250V132H262V96Z" fill="#D800B5">
<animate attributeName="fill" values="#D800B5; #D800B5; #fff; #D800B5;#fff; #D800B5;#fff; #D800B5;#fff; #D800B5;#fff; #D800B5;#fff; #D800B5;#D800B5" keyTimes="0; 0.74; 0.76; 0.78;0.8;0.82;0.84;0.86;0.88;0.9;0.92;0.94;0.96;0.98;1" dur="5s" repeatCount="indefinite" />
</path>
<path d="M256.161 295L244 267L256.161 239L268.322 267L256.161 295Z" fill="white"/>
<path d="M228 448L256 435.839L284 448L256 460.161L228 448Z" fill="white"/>
<path d="M228 392L256 379.839L284 392L256 404.161L228 392Z" fill="white"/>
<circle cx="256" cy="392" r="8" fill="#007089">
<animate attributeName="cx" values="250;264;264;250;250" keyTimes="0;0.1;0.7;0.8;1" dur="2s" repeatCount="indefinite"/>
</circle>
<circle cx="256" cy="448" r="8" fill="#007089">
<animate attributeName="cx" values="264;250;250;264;264" keyTimes="0;0.05;0.65;0.75;1" dur="3s" repeatCount="indefinite"/>
</circle>
<circle cx="256" cy="259" r="8" fill="#007089">
<animate attributeName="cy" values="259;275;275;259;259" keyTimes="0;0.15;0.75;0.85;1" dur="3s" repeatCount="indefinite"/>
</circle>
</g>
</g>
<defs>
<clipPath id="clip0_75_1471">
<rect width="512" height="512" fill="white"/>
</clipPath>
</defs>
</svg>
