<svg width="344" height="344" viewBox="0 0 344 344" fill="none" xmlns="http://www.w3.org/2000/svg">
<g>
<animateTransform attributeName="transform" type="translate" dur="0.4s" repeatCount="indefinite" keyTimes="0;0.5;1" values="0 0;0 28;0 0" />
<path d="M166 123L178 123" stroke="#000" stroke-width="4"/>
<path d="M166 123L178 123" stroke="#000" stroke-width="4"/>
<path d="M178 117H216V155H178V117Z" fill="#000"/>
<path d="M216 117H178V155H216V117ZM216 117H232" stroke="#000" stroke-width="4"/>
<path d="M128 117H166V155H128V117Z" fill="#000"/>
<path d="M128 117H166V155H128V117ZM128 117H112" stroke="#000" stroke-width="4"/>
<mask id="mask0_112_6" style="mask-type:alpha" maskUnits="userSpaceOnUse" x="130" y="119" width="34" height="34">
<path d="M130 119H164V131V153H130V119Z" fill="#000"/>
</mask>
<g mask="url(#mask0_112_6)">
<path d="M136 119H143L135 153H127L136 119Z" fill="#FFF">
<animateTransform attributeName="transform" type="translate" dur="4s" repeatCount="indefinite" keyTimes="0;0.8;1" values="-32 0;-32 0;48 0" />
</path>
</g>
<mask id="mask1_112_6" style="mask-type:alpha" maskUnits="userSpaceOnUse" x="180" y="119" width="34" height="34">
<path d="M180 119H214V131V153H180V119Z" fill="#000"/>
</mask>
<g mask="url(#mask1_112_6)">
<path d="M186 119H193L185 153H177L186 119Z" fill="#FFF">
<animateTransform attributeName="transform" type="translate" dur="4s" repeatCount="indefinite" keyTimes="0;0.8;1" values="-32 0;-32 0;48 0" />
</path>
</g>
</g>
</svg>
