<svg width="344" height="344" viewBox="0 0 344 344" fill="none" xmlns="http://www.w3.org/2000/svg">
<g>
<animateTransform attributeName="transform" type="translate" dur="0.4s" repeatCount="indefinite" keyTimes="0;0.5;1" values="0 0;0 28;0 0" />
<path d="M145 97.6879C105.4 99.6879 99 123.688 101 144.688C112.5 191.188 153.5 175.188 160 166.188C163.611 161.188 167.5 157.188 173 157.188C178.5 157.188 181.5 162.188 184.5 166.188C200.5 182.688 240 181.188 244 144.688C247.2 115.488 228.333 102.855 218.5 100.188C210.5 98.5212 184.6 95.6879 145 97.6879Z" fill="#121212"/>
<path d="M117.42 135.174C117.42 125.25 124.19 116.619 133.981 115.002C144.273 113.303 158.203 111.578 172.36 111.578C186.517 111.578 200.447 113.303 210.739 115.002C220.53 116.619 227.3 125.25 227.3 135.174C227.3 145.04 220.606 153.805 210.784 154.743C202.659 155.519 193.501 155.369 188.231 151.942C183.112 148.612 178.473 140.94 172.36 140.94C166.247 140.94 161.609 148.612 156.489 151.942C151.219 155.369 142.061 155.519 133.936 154.743C124.115 153.805 117.42 145.04 117.42 135.174Z" fill="#0732A0">
<animate attributeName="fill" dur="4s" repeatCount="indefinite" keyTimes="0;0.25;0.5;0.75;1" values="#0732A0;#9129E3;#4378FF;#0732A0;#0732A0" />
</path>
</g>
</svg>
