<svg width="344" height="344" viewBox="0 0 344 344" fill="none" xmlns="http://www.w3.org/2000/svg">
<g>
<animateTransform attributeName="transform" type="translate" dur="0.4s" repeatCount="indefinite" keyTimes="0;0.5;1" values="0 0;0 28;0 0" />
<path fill-rule="evenodd" clip-rule="evenodd" d="M112.18 113.9H232.78V151.42L186.55 159.46L172.48 148.74L158.41 159.46L112.18 151.42V113.9ZM163.77 136.68C163.77 144.451 157.471 150.75 149.7 150.75C141.929 150.75 135.63 144.451 135.63 136.68C135.63 128.91 141.929 122.61 149.7 122.61C157.471 122.61 163.77 128.91 163.77 136.68ZM195.26 150.75C203.031 150.75 209.33 144.451 209.33 136.68C209.33 128.91 203.031 122.61 195.26 122.61C187.489 122.61 181.19 128.91 181.19 136.68C181.19 144.451 187.489 150.75 195.26 150.75Z" fill="#121212"/>
</g>
</svg>
