<svg width="344" height="344" viewBox="0 0 344 344" fill="none" xmlns="http://www.w3.org/2000/svg"><g>
<animateTransform attributeName="transform" type="translate" dur="0.4s" repeatCount="indefinite" keyTimes="0;0.5;1" values="0 0;0 28;0 0" />
<path d="M201.67 44.2202L179.56 69.0102H223.78L201.67 44.2202Z" fill="#C9BBC3"/>
<path d="M140.7 44.2202L118.59 69.0102H162.81L140.7 44.2202Z" fill="#C9BBC3"/>
<rect width="120.6" height="16.08" transform="matrix(1 0 0 -1 111.22 108.54)" fill="#C9BBC3"/>
<path d="M111.22 92.46H231.82V68.34V35.175L201.67 68.34L170.85 35.175L141.37 68.34L111.22 35.175V68.34V92.46Z" fill="#D8D8D8"/>
<path d="M159.46 75.3341L171.846 62.98L183.58 75.3341L171.846 87.1L159.46 75.3341Z" fill="#00A8FF"/>
<path d="M224.45 75.2197L231.82 67.6699V82.4099L224.45 75.2197Z" fill="#D22D27"/>
<path d="M118.59 75.2197L111.22 67.6699V82.4099L118.59 75.2197Z" fill="#D22D27"/>
<circle cx="111.89" cy="32.1601" r="8.04" fill="#C9BBC3"/>
<circle cx="171.52" cy="32.1601" r="8.04" fill="#C9BBC3"/>
<circle cx="231.15" cy="32.1601" r="8.04" fill="#C9BBC3"/>
</g></svg>
