<svg width="344" height="344" viewBox="0 0 344 344" fill="none" xmlns="http://www.w3.org/2000/svg"><g>
<animateTransform attributeName="transform" type="translate" dur="0.4s" repeatCount="indefinite" keyTimes="0;0.5;1" values="0 0;0 28;0 0" />
<path d="M111.22 71.0195H231.82V71.0195C231.82 37.7168 204.823 10.7195 171.52 10.7195V10.7195C138.217 10.7195 111.22 37.7168 111.22 71.0195V71.0195Z" fill="#D22D27"/>
<path d="M45.5601 108.54H297.48L308.2 71.0195H34.8401L45.5601 108.54Z" fill="#FFB74A"/>
<path d="M88.4401 108.54L74.6214 81.7397L61.6401 108.54H88.4401Z" fill="#D22D27"/>
<path d="M136.68 108.54L122.861 81.7397L109.88 108.54H136.68Z" fill="#D22D27"/>
<path d="M184.92 108.54L171.101 81.7397L158.12 108.54H184.92Z" fill="#D22D27"/>
<path d="M233.16 108.54L219.341 81.7397L206.36 108.54H233.16Z" fill="#D22D27"/>
<path d="M281.4 108.54L267.581 81.7397L254.6 108.54H281.4Z" fill="#D22D27"/>
</g></svg>
